<?xml version="1.0" encoding="UTF-8"?>
<svg width="20px" height="20px" viewBox="0 0 20 20" version="1.1" xmlns="http://www.w3.org/2000/svg" xmlns:xlink="http://www.w3.org/1999/xlink">
    <title>切片</title>
    <g id="AI翻译web端" stroke="none" stroke-width="1" fill="none" fill-rule="evenodd">
        <g id="编辑器更新" transform="translate(-847.000000, -383.000000)">
            <g id="3" transform="translate(847.000000, 383.000000)">
                <rect id="矩形备份-3" x="0.0588235294" y="0.117647059" width="19" height="19"></rect>
                <path d="M9.04916667,11.699757 C9.38004987,12.0050304 9.81233436,12.1768358 10.2625,12.1819792 C10.3490713,12.1891358 10.4344076,12.1578459 10.4958333,12.0964236 L15.5591667,7.25086805 C15.9347552,6.88023617 16.1383012,6.36946658 16.1205744,5.84209524 C16.1028477,5.3147239 15.8654625,4.81877553 15.4658333,4.47420138 C15.0787688,4.14028102 14.5725337,3.97815856 14.0634972,4.0251014 C13.5544607,4.07204425 13.0864128,4.32401415 12.7669445,4.72309028 L8.59805555,10.4319792 C8.54611482,10.503774 8.52639013,10.5939441 8.54361112,10.680868 C8.60302335,11.0645067 8.77960671,11.4203901 9.04916667,11.699757 Z M3.18472222,14.429757 C3.53347823,14.5251104 3.90488319,14.3951187 4.11805555,14.1030903 C4.46027777,13.6053125 4.56138888,12.5475347 5.30027778,11.8942014 C5.85017829,11.3853446 6.59299977,11.1386825 7.33805555,11.2175347 C7.42624187,11.2286357 7.49788879,11.2940525 7.51694445,11.380868 C7.58734145,11.8915657 7.84179409,12.3589842 8.2325,12.6953125 C8.6848492,12.982614 9.18553846,13.1855249 9.71027778,13.2942014 C9.80537236,13.3096069 9.8748509,13.3923195 9.87361112,13.4886458 C9.92027778,14.1730903 9.87361112,16.7553125 6.46694445,16.6464236 C2.5625,16.5842014 2.8425,14.3053125 3.18472222,14.429757 Z" id="形状" fill="#1a73e8" fill-rule="nonzero"></path>
            </g>
        </g>
    </g>
</svg>