<?xml version="1.0" encoding="UTF-8"?>
<svg width="20px" height="20px" viewBox="0 0 20 20" version="1.1" xmlns="http://www.w3.org/2000/svg" xmlns:xlink="http://www.w3.org/1999/xlink">
    <title>切片</title>
    <g id="AI翻译web端" stroke="none" stroke-width="1" fill="none" fill-rule="evenodd">
        <g id="编辑器更新" transform="translate(-655.000000, -383.000000)">
            <g id="icon_20_Bold" transform="translate(655.000000, 383.000000)">
                <rect id="矩形备份-5" x="0" y="0" width="20" height="20"></rect>
                <g id="编组" transform="translate(4.000000, 3.000000)" fill="#333333" fill-rule="nonzero">
                    <path d="M11.3630294,8.56978713 C10.9086133,7.92513304 10.2381526,7.49637155 9.35230382,7.2841074 L9.35230382,7.242985 C9.82182336,7.037373 10.2164824,6.80757136 10.5362811,6.55358007 C10.8567363,6.31349782 11.1023312,6.05950653 11.2737222,5.79221093 C11.6086243,5.22980164 11.7688519,4.640179 11.7537485,4.02273827 C11.7537485,2.81567489 11.347926,1.84506531 10.5362811,1.11090953 C9.73185947,0.384010643 8.52883879,0.0139090469 6.92787567,0 L0,0 L0,15 L7.47553902,15 C8.75670351,15 9.82510671,14.6057088 10.6820619,13.8165215 C11.5462406,13.0618045 11.9855532,12.0367683 12,10.7408079 C12,9.9588776 11.7878954,9.23500242 11.3630294,8.56978713 Z M2.64900952,2.02648766 L6.64879063,2.02648766 C7.5497428,2.04039671 8.21298019,2.24238026 8.63718945,2.6336478 C9.06927876,3.05212869 9.28532341,3.56313498 9.28532341,4.16666667 C9.28532341,4.77019836 9.06927876,5.27092404 8.63718945,5.66884373 C8.21298019,6.10062893 7.5497428,6.31712627 6.64879063,6.31712627 L2.64900952,6.31712627 L2.64900952,2.02648766 Z M8.89460436,12.1607402 C8.4703951,12.6064344 7.79993433,12.8362361 6.88387873,12.8501451 L2.64900952,12.8501451 L2.64900952,8.34421867 L6.88322206,8.34421867 C7.79927766,8.35752298 8.46973843,8.58067247 8.89394769,9.01306241 C9.31815694,9.4521045 9.53091824,9.98004354 9.53091824,10.5974843 C9.53091824,11.2004112 9.31881361,11.7216981 8.89460436,12.1607402 L8.89460436,12.1607402 Z" id="形状"></path>
                </g>
            </g>
        </g>
    </g>
</svg>