<?xml version="1.0" encoding="UTF-8"?>
<svg width="20px" height="20px" viewBox="0 0 20 20" version="1.1" xmlns="http://www.w3.org/2000/svg" xmlns:xlink="http://www.w3.org/1999/xlink">
    <title>切片</title>
    <g id="AI翻译web端" stroke="none" stroke-width="1" fill="none" fill-rule="evenodd">
        <g id="编辑器更新" transform="translate(-1206.000000, -383.000000)">
            <g id="icon_20_symbol" transform="translate(1206.000000, 383.000000)">
                <rect id="矩形备份-2" x="0" y="0" width="20" height="20"></rect>
                <g id="编组" transform="translate(7.000000, 2.000000)" fill="#333333" fill-rule="nonzero">
                    <path d="M0.0290092582,1.14615613 L0.0290092582,0 L10.9803991,0 L10.9803991,1.14615613 L0.0290092582,1.14615613 Z M0.0133285755,4.02682854 L0.0133285755,2.88067241 L6.28717035,2.88067241 L6.28717035,4.02682854 L0.0133285755,4.02682854 Z M0,7.05497304 L0,5.90881691 L11,5.90881691 L11,7.05497304 L0.000784025025,7.05497304 L0,7.05497304 Z M0,11.99151 L11,11.99151 L11,13.1376661 L0.000784025025,13.1376661 L0,11.99151 Z M0.0133285755,9.91730696 L0.0133285755,8.77115082 L6.29187455,8.77115082 L6.29187455,9.91730696 L0.0133285755,9.91730696 Z M0.0133285755,16 L0.0133285755,14.8538439 L6.29187455,14.8538439 L6.29187455,16 L0.0133285755,16 Z" id="形状"></path>
                </g>
            </g>
        </g>
    </g>
</svg>