<?xml version="1.0" encoding="UTF-8"?>
<svg width="20px" height="20px" viewBox="0 0 20 20" version="1.1" xmlns="http://www.w3.org/2000/svg" xmlns:xlink="http://www.w3.org/1999/xlink">
    <title>切片</title>
    <g id="AI翻译web端" stroke="none" stroke-width="1" fill="none" fill-rule="evenodd">
        <g id="编辑器更新" transform="translate(-928.000000, -383.000000)">
            <g id="icon_20_comment" transform="translate(928.000000, 383.000000)">
                <rect id="矩形备份-2" x="0" y="0" width="20" height="20"></rect>
                <path d="M9.55219322,17.6846617 L6.95500156,15.0219461 L3.03640709,15.0219461 C2.66363002,15.0225187 2.30595988,14.8713194 2.0423664,14.6017313 C1.77877291,14.3321433 1.63093566,13.9663391 1.63149236,13.5850844 L1.63851307,3.5414071 C1.63851307,2.74618096 2.26307415,2.10526316 3.04342462,2.10526316 L17.0693823,2.10526316 C17.8455223,2.10526316 18.4742939,2.74618096 18.4735998,3.5421248 L18.4665746,13.5865198 C18.4665746,14.3795928 17.837803,15.0219461 17.0623648,15.0219461 L13.1514896,15.0219461 L10.5437717,17.6846617 C10.4122931,17.8191685 10.2339476,17.8947368 10.0479824,17.8947368 C9.86201731,17.8947368 9.68367174,17.8191685 9.55219322,17.6846617 Z M17.0700841,3.5414071 C17.0700841,3.5414071 3.04202112,3.53925396 3.04202112,3.5421248 C3.04202112,3.5421248 3.03570533,13.5858021 3.03710883,13.5858021 L7.24552772,13.5858021 C7.43149255,13.5858021 7.61043982,13.661162 7.74166783,13.7960921 L10.0497368,16.1616745 L12.3655251,13.7953744 C12.4971701,13.660964 12.6756491,13.5855735 12.8616652,13.5858021 L17.0637683,13.5858021 L17.0700841,3.5414071 Z M6.19289669,10.0001074 C5.61154462,10.0001074 5.14026565,9.51811076 5.14026565,8.92353774 C5.14026565,8.32896473 5.61154462,7.84696807 6.19289669,7.84696807 C6.77424876,7.84696807 7.24552881,8.32896473 7.24552881,8.92353774 C7.24552881,9.51811076 6.77424876,10.0001074 6.19289669,10.0001074 Z M10.0525438,10.0001074 C9.47119176,10.0001074 8.99991279,9.51811076 8.99991279,8.92353774 C8.99991279,8.32896473 9.47119176,7.84696807 10.0525438,7.84696807 C10.6338959,7.84696807 11.105176,8.32896473 11.105176,8.92353774 C11.105176,9.51811076 10.6338959,10.0001074 10.0525438,10.0001074 Z M13.912191,10.0001074 C13.3308389,10.0001074 12.8595599,9.51811076 12.8595599,8.92353774 C12.8595599,8.32896473 13.3308389,7.84696807 13.912191,7.84696807 C14.4935431,7.84696807 14.9648231,8.32896473 14.9648231,8.92353774 C14.9648231,9.51811076 14.4935431,10.0001074 13.912191,10.0001074 Z" id="形状" fill="#3D3D3D" fill-rule="nonzero"></path>
            </g>
        </g>
    </g>
</svg>