<?xml version="1.0" encoding="UTF-8"?>
<svg width="20px" height="20px" viewBox="0 0 20 20" version="1.1" xmlns="http://www.w3.org/2000/svg" xmlns:xlink="http://www.w3.org/1999/xlink">
    <title>切片</title>
    <g id="AI翻译web端" stroke="none" stroke-width="1" fill="none" fill-rule="evenodd">
        <g id="编辑器更新" transform="translate(-887.000000, -383.000000)">
            <g id="2" transform="translate(887.000000, 383.000000)">
                <rect id="矩形备份-2" x="0.529411765" y="0.0588235294" width="19" height="19"></rect>
                <path d="M15.0252308,13.9778462 L15.0252308,7.9168 C15.0252308,6.72356923 14.0577231,5.75667692 12.8658462,5.75667692 L8.14043077,5.75667692 L6.77476923,5.75667692 L5.74141538,5.75667692 L5.17341538,5.75667692 C3.98018462,5.75667692 3.01403077,6.72344615 3.01403077,7.9168 L3.01403077,15.6100923 C3.01403077,16.8019692 3.98018462,17.7692308 5.17341538,17.7692308 L12.8659692,17.7692308 C14.0592,17.7692308 15.0253538,16.8019692 15.0253538,15.6100923 L15.0253538,15.0126769 L15.0422154,15.0126769 L15.0422154,13.9735385 C15.0363077,13.9735385 15.0322462,13.9764923 15.0252308,13.9778462 Z M13.2423385,13.6486154 L13.2423385,14.4678154 C13.2423385,14.4844308 13.2377846,14.5022769 13.2377846,14.5191385 C13.2103385,15.3336615 12.5442462,15.9864615 11.7236923,15.9864615 L6.31421538,15.9864615 C5.47581538,15.9864615 4.7968,15.3063385 4.7968,14.4678154 L4.7968,9.05747692 C4.7968,8.24529231 5.43643077,7.58646154 6.23938462,7.54596923 C6.26424615,7.54473846 6.28935385,7.53883077 6.31421538,7.53883077 L7.11089231,7.53883077 L11.7236923,7.53883077 C12.5633231,7.53883077 13.2423385,8.21969231 13.2423385,9.05747692 L13.2423385,13.6486154 Z M17.7523692,11.2211692 L17.7523692,5.16012308 C17.7523692,3.96689231 16.7848615,3 15.5929846,3 L10.8675692,3 L9.50190769,3 L8.46855385,3 L7.90055385,3 C6.70732308,3 5.74116923,3.96676923 5.74116923,5.16012308 L5.74116923,5.24615385 L7.95421538,5.24615385 C8.21366154,4.98055385 8.57009231,4.80923077 8.96664615,4.78929231 C8.99138462,4.78806154 9.01649231,4.78215385 9.04135385,4.78215385 L9.83803077,4.78215385 L14.4508308,4.78215385 C15.2904615,4.78215385 15.9694769,5.46301538 15.9694769,6.3008 L15.9694769,10.8918154 L15.9694769,11.7110154 C15.9694769,11.7276308 15.9649231,11.7454769 15.9649231,11.7623385 C15.9480615,12.2606769 15.6916923,12.6976 15.3076923,12.9623385 L15.3076923,15.0124308 L15.5929846,15.0124308 C16.7862154,15.0124308 17.7523692,14.0451692 17.7523692,12.8532923 L17.7523692,12.2558769 L17.7692308,12.2558769 L17.7692308,11.2167385 C17.7634462,11.2168615 17.7593846,11.2196923 17.7523692,11.2211692 Z" id="形状" fill="#333333" fill-rule="nonzero"></path>
            </g>
        </g>
    </g>
</svg>