<?xml version="1.0" encoding="UTF-8"?>
<svg width="20px" height="20px" viewBox="0 0 20 20" version="1.1" xmlns="http://www.w3.org/2000/svg" xmlns:xlink="http://www.w3.org/1999/xlink">
    <title>切片</title>
    <g id="AI翻译web端" stroke="none" stroke-width="1" fill="none" fill-rule="evenodd">
        <g id="编辑器更新" transform="translate(-1274.000000, -383.000000)">
            <g id="icon_20_decrease-indentation" transform="translate(1274.000000, 383.000000)">
                <rect id="矩形备份-2" x="0" y="0" width="20" height="20"></rect>
                <g id="编组" transform="translate(2.000000, 2.000000)" fill="#1a73e8" fill-rule="nonzero">
                    <path d="M0,1.39497036 L0,0 L15.9292944,0 L15.9292944,1.39497036 L0,1.39497036 Z M0,12.3487426 L0,10.9537722 L16,10.9537722 L16,12.3487426 L0.00114040004,12.3487426 L0,12.3487426 Z M16,14.6050296 L16,16 L0.00114040004,16 L0,14.6050296 L16,14.6050296 Z M15.994006,3.65125741 L15.994006,5.04622777 L8,5.04622777 L8,3.65125741 L15.994006,3.65125741 Z M8,8.69748518 L8,7.30251482 L16,7.30251482 L16,8.69748518 L8,8.69748518 Z" id="形状"></path>
                    <g id="编组-13" transform="translate(3.821437, 6.255347) scale(-1, 1) translate(-3.821437, -6.255347) translate(0.130060, 2.755347)" stroke="#1a73e8" stroke-width="0.2">
                        <path d="M0.65,2.84553473 L5.7477103,2.84553473 C6.10669538,2.84553473 6.3977103,3.13654964 6.3977103,3.49553473 C6.3977103,3.85451981 6.10669538,4.14553473 5.7477103,4.14553473 L0.65,4.14553473 C0.291014913,4.14553473 4.39629938e-17,3.85451981 0,3.49553473 C-4.39629938e-17,3.13654964 0.291014913,2.84553473 0.65,2.84553473 Z" id="矩形"></path>
                        <path d="M7.23884546,3.84656343 L4.22155597,6.85639559 C4.029615,7.04786814 3.71848639,7.04786814 3.52663942,6.85639559 C3.33479244,6.66501681 3.33479244,6.35455374 3.52663942,6.16317496 L6.19642364,3.5 L3.52673341,0.836825044 C3.33488644,0.645352498 3.33488644,0.334983189 3.52673341,0.14360441 C3.71858039,-0.0478681366 4.02970899,-0.0478681366 4.22164996,0.14360441 L7.23893946,3.15343657 C7.33481594,3.24917284 7.38275419,3.37453954 7.38275419,3.5 C7.38275419,3.62546046 7.33472195,3.75092093 7.23884546,3.84656343 Z" id="路径"></path>
                    </g>
                </g>
            </g>
        </g>
    </g>
</svg>