<?xml version="1.0" encoding="UTF-8"?>
<svg width="20px" height="20px" viewBox="0 0 20 20" version="1.1" xmlns="http://www.w3.org/2000/svg" xmlns:xlink="http://www.w3.org/1999/xlink">
    <title>切片</title>
    <g id="AI翻译web端" stroke="none" stroke-width="1" fill="none" fill-rule="evenodd">
        <g id="编辑器更新" transform="translate(-272.000000, -383.000000)">
            <g id="格式刷" transform="translate(272.000000, 383.000000)">
                <rect id="矩形备份-4" x="0" y="0" width="20" height="20"></rect>
                <g id="编组" transform="translate(3.000000, 2.000000)" fill="#333333" fill-rule="nonzero">
                    <path d="M7.85714285,10.1818182 C8.25163196,10.1818182 8.57142857,10.5074293 8.57142857,10.9090909 L8.57142857,15.2727273 C8.57142856,15.6743889 8.25163196,16 7.85714285,16 L5,16 C4.6055109,16 4.28571429,15.6743889 4.28571429,15.2727273 L4.28571429,10.9090909 C4.28571429,10.5074293 4.6055109,10.1818182 5,10.1818182 L5.71428571,10.1825455 L5.71428571,7.63636364 C5.71431219,7.07445679 6.13353325,6.6044885 6.68285714,6.55054545 L6.78571428,6.54545455 L13.5714286,6.54545455 L13.5714286,3.63709091 L12.8571429,3.63709091 L12.8571429,5.09090908 C12.8571429,5.49257072 12.5373462,5.81818182 12.1428571,5.81818182 L0.71428572,5.81818182 C0.31979661,5.81818182 0,5.49257072 0,5.09090908 L0,0.727272716 C0,0.325611083 0.319796616,-3.10055012e-16 0.71428572,-3.10055012e-16 L12.1428571,-3.10055012e-16 C12.5373462,-3.10055012e-16 12.8571428,0.325611083 12.8571429,0.727272716 L12.8571429,2.18254544 L13.9285714,2.18181818 C14.4804442,2.18184516 14.9420202,2.60868842 14.995,3.168 L15,3.27272728 L15,6.90909091 C15,7.47099775 14.5807524,7.94096603 14.0314286,7.99490909 L13.9285714,8 L7.14285715,8 L7.14285715,10.1825455 L7.85714285,10.1818182 Z M1.42857142,1.45527273 L1.42857142,4.36436363 L11.4285714,4.36436363 L11.4285714,1.45527273 L1.42857142,1.45527273 Z M5.71428571,11.6370909 L5.71428571,14.5461818 L7.14285715,14.5461818 L7.14285715,11.6370909 L5.71428571,11.6370909 Z" id="形状"></path>
                </g>
            </g>
        </g>
    </g>
</svg>