<?xml version="1.0" encoding="UTF-8"?>
<svg width="20px" height="20px" viewBox="0 0 20 20" version="1.1" xmlns="http://www.w3.org/2000/svg" xmlns:xlink="http://www.w3.org/1999/xlink">
    <title>切片</title>
    <g id="AI翻译web端" stroke="none" stroke-width="1" fill="none" fill-rule="evenodd">
        <g id="编辑器更新" transform="translate(-1130.000000, -383.000000)">
            <g id="icon_20_从左向右" transform="translate(1130.000000, 383.000000)">
                <rect id="矩形备份-4" x="0" y="0" width="20" height="20"></rect>
                <g id="编组-14备份" transform="translate(2.000000, 2.000000)" fill="#1a73e8" fill-rule="nonzero" stroke="#1a73e8">
                    <path d="M16.463085,1.44767255e-13 C16.8281768,-3.95169398e-05 17.1241742,0.295893839 17.1242137,0.66098565 L17.1242137,0.661057201 C17.1242137,1.02618853 16.8282163,1.32218596 16.463085,1.32218596 L12.002538,1.32218596 L12.002538,15.3628408 C12.002538,15.7146946 11.7173042,15.9999284 11.3654504,15.9999284 C11.0135966,15.9999284 10.7283628,15.7146946 10.7283628,15.3628408 L10.7283628,1.32218596 L8.63971515,1.32218596 L8.63971515,15.3628408 C8.63971515,15.7146946 8.35448132,15.9999284 8.00262755,15.9999284 C7.65077379,15.9999284 7.36553995,15.7146946 7.36553995,15.3628408 L7.36553995,6.30313006 L4.90803846,6.30313006 C3.23110341,6.30313006 1.87167896,4.89240631 1.87167896,3.15219038 C1.87167896,1.41197445 3.23110341,0.00125069932 4.90803846,0.00125069932 L16.463085,1.44767255e-13 Z M7.36553995,1.32218596 L4.90803846,1.32218596 C3.93481094,1.32218596 3.14585416,2.14091485 3.14585416,3.15086812 C3.14585416,4.16082139 3.93481094,4.97955028 4.90803846,4.97955028 L7.36553995,4.98087254 L7.36553995,1.32218596 Z" id="形状结合" stroke-width="0.2"></path>
                    <g id="编组-13" transform="translate(0.000000, 7.999928)">
                        <rect id="矩形" stroke-width="0.2" x="0" y="2.84553473" width="6.3977103" height="1.3" rx="0.65"></rect>
                        <path d="M7.23884546,3.84656343 L4.22155597,6.85639559 C4.029615,7.04786814 3.71848639,7.04786814 3.52663942,6.85639559 C3.33479244,6.66501681 3.33479244,6.35455374 3.52663942,6.16317496 L6.19642364,3.5 L3.52673341,0.836825044 C3.33488644,0.645352498 3.33488644,0.334983189 3.52673341,0.14360441 C3.71858039,-0.0478681366 4.02970899,-0.0478681366 4.22164996,0.14360441 L7.23893946,3.15343657 C7.33481594,3.24917284 7.38275419,3.37453954 7.38275419,3.5 C7.38275419,3.62546046 7.33472195,3.75092093 7.23884546,3.84656343 Z" id="路径" stroke-width="0.5"></path>
                    </g>
                </g>
            </g>
        </g>
    </g>
</svg>