<?xml version="1.0" encoding="UTF-8"?>
<svg width="20px" height="20px" viewBox="0 0 20 20" version="1.1" xmlns="http://www.w3.org/2000/svg" xmlns:xlink="http://www.w3.org/1999/xlink">
    <title>切片</title>
    <g id="AI翻译web端" stroke="none" stroke-width="1" fill="none" fill-rule="evenodd">
        <g id="编辑器更新" transform="translate(-1090.000000, -383.000000)">
            <g id="icon_20_行间距" transform="translate(1090.000000, 383.000000)">
                <rect id="矩形备份-2" x="0" y="0" width="20" height="20"></rect>
                <g id="编组" transform="translate(2.000000, 2.000000)" fill="#1a73e8" fill-rule="nonzero">
                    <path d="M4.33428746,3.51431225 C4.4609981,3.65693508 4.64504076,3.74680358 4.84937417,3.74680358 C5.23203016,3.74680358 5.54217703,3.43237186 5.54217703,3.04431012 C5.54217703,2.86347614 5.47471603,2.69889727 5.3644445,2.5743246 L3.28616704,0.232574436 C3.15945639,0.089868504 2.97541373,0 2.77109671,0 C2.56666496,0 2.38290093,0.089868504 2.25609195,0.232574436 L0.177814484,2.5743246 C0.0674773924,2.69889727 0,2.86347614 0,3.04431012 C0,3.43237186 0.310064928,3.74680358 0.692737301,3.74680358 C0.897152661,3.74680358 1.08093308,3.65693508 1.20772568,3.51431225 L2.07835941,2.53338764 L2.07835941,12.4539929 L1.20772568,11.4731348 C1.08101503,11.3303457 0.897152661,11.2405603 0.692737301,11.2405603 C0.310064928,11.2405603 0,11.5550087 0,11.94322 C0,12.1238047 0.0674773924,12.2885498 0.177830874,12.4130559 L2.2561575,14.7549557 C2.38288454,14.8978278 2.56674691,14.987447 2.77116227,14.987447 C2.97549568,14.987447 3.15944,14.8977447 3.2862326,14.7549557 L5.36459201,12.4130559 C5.47486354,12.2884667 5.54234093,12.1238047 5.54234093,11.94322 C5.54234093,11.5550087 5.23217766,11.2405603 4.84952168,11.2405603 C4.64518827,11.2405603 4.46124395,11.3304288 4.33443497,11.4731348 L3.46396513,12.4539763 L3.46396513,2.53337102 L4.33427107,3.51432887 L4.33428746,3.51431225 Z M12.0316108,6.48075406 C12.725856,6.47821108 13.1820208,6.05296868 13.1806798,5.43805005 C13.179169,4.82133637 12.723758,4.38189983 12.0342004,4.3804372 C8.61460283,4.37380552 10.3980088,4.3721102 6.97849324,4.38818248 C6.72146616,4.38946228 6.43187227,4.49277699 6.21586922,4.63812562 C5.84830838,4.88542606 5.74626459,5.35780497 5.89118446,5.78013874 C6.04180803,6.21882734 6.38429227,6.47573459 6.88911888,6.47787867 C8.62771479,6.48560732 7.68113006,6.48083716 9.41988987,6.48083716 L9.41988987,6.48279841 C11.1295247,6.48288152 10.3219923,6.48705333 12.0316272,6.48075406 L12.0316108,6.48075406 Z M13.0518847,8.63927685 C9.30248871,8.63314379 10.755998,8.63262854 7.00645448,8.64489467 C6.75880245,8.64574233 6.48230412,8.71952193 6.27057885,8.84700324 C5.87784305,9.08331735 5.74618264,9.56148028 5.88136689,10.0069668 C6.01958327,10.4624257 6.37254068,10.7243525 6.90347647,10.7258151 C8.81433067,10.7317653 8.03987312,10.7281088 9.95082566,10.7284412 C11.8182957,10.7287736 11.1684345,10.7364358 13.035757,10.7199313 C13.2964882,10.7176377 13.590704,10.6538139 13.8088706,10.5181552 C14.2091621,10.2690098 14.3211874,9.80861451 14.1750219,9.35385362 C14.0258078,8.88897068 13.6669828,8.64047355 13.0518683,8.63927685 L13.0518847,8.63927685 Z M14.8794944,0.13446203 C12.9826372,0.125952196 11.840963,0.131736224 9.94426968,0.131736224 C8.06185203,0.131570016 8.86486086,0.129442558 6.98252516,0.132932919 C6.40140337,0.134129615 6.02805687,0.392915005 5.880531,0.873720643 C5.66057798,1.59024204 6.16333946,2.23103921 6.96816757,2.23298384 C9.45881598,2.2389507 9.26387401,2.23537723 11.7543585,2.23546034 C13.0428866,2.23546034 13.5764284,2.23843546 14.8651368,2.23358219 C15.3964987,2.23170404 15.767567,1.986797 15.9271887,1.55620271 C16.1954592,0.83243465 15.6947301,0.1381186 14.8794944,0.13446203 L14.8794944,0.13446203 Z M11.4431955,12.9076402 C9.70451761,12.9003271 11.1546833,12.9048313 9.41626769,12.9044823 C7.69204576,12.9039836 8.65313559,12.8981996 6.92907756,12.9067925 C6.27175892,12.9099505 5.8246413,13.3512652 5.82896942,13.9529038 C5.83337714,14.5514011 6.287608,14.9948599 6.93889513,14.9960233 C10.3871095,15.0014916 7.96125056,15.0033531 11.4095469,14.9880454 C11.6519705,14.9868487 11.9259612,14.8839661 12.1281967,14.7438863 C12.4879559,14.4947243 12.5905734,14.0198855 12.4478334,13.5970199 C12.3036674,13.1714451 11.9470223,12.9098508 11.4431955,12.9076402 L11.4431955,12.9076402 Z" id="形状"></path>
                </g>
            </g>
        </g>
    </g>
</svg>