<?xml version="1.0" encoding="UTF-8"?>
<svg width="20px" height="20px" viewBox="0 0 20 20" version="1.1" xmlns="http://www.w3.org/2000/svg" xmlns:xlink="http://www.w3.org/1999/xlink">
    <title>切片</title>
    <g id="AI翻译web端" stroke="none" stroke-width="1" fill="none" fill-rule="evenodd">
        <g id="编辑器更新" transform="translate(-1170.000000, -383.000000)">
            <g id="icon_20_从右向左" transform="translate(1170.000000, 383.000000)">
                <rect id="矩形备份-2" x="0" y="0" width="20" height="20"></rect>
                <g id="编组-14" transform="translate(1.000000, 2.000000)" fill="#1a73e8" fill-rule="nonzero" stroke="#1a73e8">
                    <path d="M14.591406,1.44767255e-13 C14.9564978,-3.95169398e-05 15.2524953,0.295893839 15.2525348,0.66098565 L15.2525348,0.661057201 C15.2525348,1.02618853 14.9565374,1.32218596 14.591406,1.32218596 L10.130859,1.32218596 L10.130859,15.3628408 C10.130859,15.7146946 9.84562522,15.9999284 9.49377145,15.9999284 C9.14191769,15.9999284 8.85668385,15.7146946 8.85668385,15.3628408 L8.85668385,1.32218596 L6.76803619,1.32218596 L6.76803619,15.3628408 C6.76803619,15.7146946 6.48280236,15.9999284 6.13094859,15.9999284 C5.77909483,15.9999284 5.49386099,15.7146946 5.49386099,15.3628408 L5.49386099,6.30313006 L3.0363595,6.30313006 C1.35942445,6.30313006 0,4.89240631 0,3.15219038 C0,1.41197445 1.35942445,0.00125069932 3.0363595,0.00125069932 L14.591406,1.44767255e-13 Z M5.49386099,1.32218596 L3.0363595,1.32218596 C2.06313198,1.32218596 1.2741752,2.14091485 1.2741752,3.15086812 C1.2741752,4.16082139 2.06313198,4.97955028 3.0363595,4.97955028 L5.49386099,4.98087254 L5.49386099,1.32218596 Z" id="形状结合" stroke-width="0.2"></path>
                    <g id="编组-13" transform="translate(13.819698, 11.499928) scale(-1, 1) translate(-13.819698, -11.499928) translate(10.128321, 7.999928)">
                        <rect id="矩形" stroke-width="0.2" x="0" y="2.84553473" width="6.3977103" height="1.3" rx="0.65"></rect>
                        <path d="M7.23884546,3.84656343 L4.22155597,6.85639559 C4.029615,7.04786814 3.71848639,7.04786814 3.52663942,6.85639559 C3.33479244,6.66501681 3.33479244,6.35455374 3.52663942,6.16317496 L6.19642364,3.5 L3.52673341,0.836825044 C3.33488644,0.645352498 3.33488644,0.334983189 3.52673341,0.14360441 C3.71858039,-0.0478681366 4.02970899,-0.0478681366 4.22164996,0.14360441 L7.23893946,3.15343657 C7.33481594,3.24917284 7.38275419,3.37453954 7.38275419,3.5 C7.38275419,3.62546046 7.33472195,3.75092093 7.23884546,3.84656343 Z" id="路径" stroke-width="0.5"></path>
                    </g>
                </g>
            </g>
        </g>
    </g>
</svg>