<?xml version="1.0" encoding="UTF-8"?>
<svg width="20px" height="20px" viewBox="0 0 20 20" version="1.1" xmlns="http://www.w3.org/2000/svg" xmlns:xlink="http://www.w3.org/1999/xlink">
    <title>切片</title>
    <g id="AI翻译web端" stroke="none" stroke-width="1" fill="none" fill-rule="evenodd">
        <g id="编辑器更新" transform="translate(-116.000000, -383.000000)">
            <g id="icon_20_save" transform="translate(116.000000, 383.000000)">
                <rect id="矩形" x="0" y="0" width="20" height="20"></rect>
                <g id="编组" transform="translate(3.000000, 2.568151)" fill="#333333" fill-rule="nonzero">
                    <path d="M10.18937,0 C10.6092759,0.0279375001 10.9732753,0.22303125 11.1970883,0.52978125 L11.1970883,0.52978125 L13.6885242,4.09846875 C13.8845239,4.29365625 14.0244303,4.57246875 13.9964304,4.87921875 L13.9964304,4.87921875 L13.9964304,13.9125937 C13.9964304,14.4980625 13.5205245,15 12.9046188,15 L12.9046188,15 L1.11971816,15 C0.503812507,15 0,14.526 0,13.9125937 L0,13.9125937 L0,1.11525 C0,0.50184375 0.503812507,0 1.11971816,0 L1.11971816,0 Z M10.9342807,11.5216875 L3.02840037,11.5216875 C2.60731839,11.5216875 2.26598028,11.8700625 2.26598028,12.2998125 C2.26598028,12.7295625 2.60733706,13.0779375 3.02840037,13.0779375 L3.02840037,13.0779375 L10.9342807,13.0779375 C11.355344,13.0779375 11.6967008,12.7295625 11.6967008,12.2998125 C11.6967008,11.8700625 11.355344,11.5216875 10.9342807,11.5216875 L10.9342807,11.5216875 Z M10.9343181,8.653125 L3.0283817,8.653125 C2.60729973,8.653125 2.26596162,9.0015 2.26596162,9.43125 C2.26596162,9.861 2.60731839,10.209375 3.0283817,10.209375 L3.0283817,10.209375 L10.9342994,10.209375 C11.3553814,10.209375 11.6967382,9.861 11.6967382,9.43125 C11.6967382,9.0015 11.3553814,8.653125 10.9343181,8.653125 L10.9343181,8.653125 Z M9.47870282,1.6614375 L1.63305066,1.6614375 L1.63305066,5.45325 C1.63305066,6.010875 2.08086325,6.4569375 2.640769,6.4569375 L2.640769,6.4569375 L9.47098447,6.4569375 C10.0307036,6.4569375 10.4787028,5.9829375 10.4787028,5.45325 L10.4787028,5.45325 L10.4787028,2.6614375 C10.4787028,2.10915275 10.0309876,1.6614375 9.47870282,1.6614375 L9.47870282,1.6614375 Z M9.13212903,3.22400625 C9.44003519,3.22400625 9.69194144,3.47488125 9.69194144,3.78163125 L9.69194144,3.78163125 L9.69194144,5.1756 C9.69194144,5.48235 9.44003519,5.73331875 9.13212903,5.73331875 C8.82422287,5.73331875 8.57231661,5.48235 8.57231661,5.1756 L8.57231661,5.1756 L8.57231661,3.78163125 C8.57231661,3.47488125 8.82422287,3.22400625 9.13212903,3.22400625 Z" id="形状结合"></path>
                </g>
            </g>
        </g>
    </g>
</svg>