<?xml version="1.0" encoding="UTF-8"?>
<svg width="20px" height="20px" viewBox="0 0 20 20" version="1.1" xmlns="http://www.w3.org/2000/svg" xmlns:xlink="http://www.w3.org/1999/xlink">
    <title>切片</title>
    <g id="AI翻译web端" stroke="none" stroke-width="1" fill="none" fill-rule="evenodd">
        <g id="编辑器更新" transform="translate(-112.000000, -388.000000)">
            <g id="编组-10" transform="translate(88.000000, 268.000000)">
                <g id="icon_20_search" transform="translate(24.000000, 120.000000)">
                    <rect id="矩形" x="0" y="0" width="20" height="20"></rect>
                    <g id="编组" transform="translate(3.000000, 3.000000)" fill="#1a73e8" fill-rule="nonzero">
                        <path d="M14.6870059,13.124807 L11.3213962,9.67120047 C12.0636958,8.68256543 12.4814822,7.50111822 12.5164597,6.25161964 C12.5611531,4.62594826 11.9529338,3.07967014 10.8025638,1.90011324 C9.65219371,0.718666024 8.09763959,0.0457136879 6.42649391,0.00223643029 C4.75340503,-0.0412408274 3.16581663,0.55042794 1.95326441,1.66949474 C0.738769005,2.78856155 0.0469924202,4.30081399 0.00229898913,5.92648536 C-0.0423944419,7.55215673 0.565824859,9.09843485 1.71619491,10.2779918 C2.86656496,11.459439 4.42111909,12.1323913 6.09226477,12.1758686 C6.15056055,12.1777589 6.20691314,12.1777589 6.26520892,12.1777589 C7.4874771,12.1777589 8.65922227,11.8375021 9.66579606,11.1985754 L13.0314057,14.6540723 C13.2568161,14.8846908 13.558011,15 13.861149,15 C14.1429119,15 14.4246749,14.8998133 14.6461988,14.6956592 C15.1009059,14.2741188 15.1203378,13.5709214 14.6870059,13.124807 L14.6870059,13.124807 Z M6.14084459,10.357385 C4.96909942,10.32714 3.87896834,9.85456107 3.07060019,9.02471255 C2.26417524,8.19675434 1.83667286,7.11171321 1.86776394,5.97185294 C1.89885502,4.83199266 2.38465318,3.77152564 3.23771476,2.98515437 C4.05968525,2.22713783 5.12649802,1.81315873 6.25549295,1.81315873 C6.2963,1.81315873 6.33710704,1.81315873 6.3759709,1.81504904 C7.54771607,1.84529409 8.63784715,2.31787298 9.44621529,3.1477215 C10.2526402,3.97567972 10.6801426,5.06072084 10.6490515,6.20058112 C10.6179605,7.34044139 10.1321623,8.40090842 9.27910072,9.18727969 C8.42798234,9.97365095 7.31258976,10.3876301 6.14084459,10.357385 Z" id="形状"></path>
                    </g>
                </g>
            </g>
        </g>
    </g>
</svg>