<?xml version="1.0" encoding="UTF-8"?>
<svg width="20px" height="20px" viewBox="0 0 20 20" version="1.1" xmlns="http://www.w3.org/2000/svg" xmlns:xlink="http://www.w3.org/1999/xlink">
    <title>切片</title>
    <g id="AI翻译web端" stroke="none" stroke-width="1" fill="none" fill-rule="evenodd">
        <g id="编辑器更新" transform="translate(-180.000000, -388.000000)">
            <g id="编组-10" transform="translate(88.000000, 268.000000)">
                <g id="icon_20_show" transform="translate(92.000000, 120.000000)">
                    <rect id="矩形" x="0" y="0" width="20" height="20"></rect>
                    <g id="编组" transform="translate(2.000000, 2.000000)" fill="#1a73e8" fill-rule="nonzero">
                        <path d="M11.5652174,0 C12.8485507,0 13.9082729,0.97962963 13.9943551,2.20870199 L14,2.37037037 L14.0008829,7.92894662 C13.623773,7.75262806 13.2179938,7.60907562 12.7835454,7.51173353 L12.7826087,2.37037037 C12.7826087,1.71851852 12.2347826,1.18518519 11.5652174,1.18518519 L2.43478261,1.18518519 C1.80706522,1.18518519 1.28634511,1.65393519 1.22370712,2.24963831 L1.2173913,2.37037037 L1.2173913,13.6296296 C1.2173913,14.2407407 1.69887908,14.7476852 2.31076979,14.8086661 L2.43478261,14.8148148 L6.469,14.814 L6.61482256,14.9819754 C6.92043455,15.3276964 7.27847759,15.6782959 7.68895166,16.0005238 L2.43478261,16 C1.15144928,16 0.0917270531,15.0203704 0.00564487721,13.791298 L0,13.6296296 L0,2.37037037 C0,1.12098765 1.00625,0.0893004115 2.26872106,0.00549554184 L2.43478261,0 L11.5652174,0 Z M6.59873004,9.77790854 C6.21881907,10.2074085 5.91936851,10.609094 5.68143189,10.9635732 L4.26086957,10.962963 C3.92608696,10.962963 3.65217391,10.6962963 3.65217391,10.3703704 C3.65217391,10.077037 3.87404348,9.8317037 4.16247391,9.78557037 L4.26086957,9.77777778 Z M9.73913043,6.81481481 C10.073913,6.81481481 10.3478261,7.08148148 10.3478261,7.40740741 L10.3395529,7.48555463 C9.80064844,7.594049 9.30478371,7.77381109 8.85195873,8.00011148 L4.26086957,8 C3.92608696,8 3.65217391,7.73333333 3.65217391,7.40740741 C3.65217391,7.11407407 3.87404348,6.86874074 4.16247391,6.82260741 L4.26086957,6.81481481 L9.73913043,6.81481481 Z M9.73913043,3.85185185 C10.073913,3.85185185 10.3478261,4.11851852 10.3478261,4.44444444 C10.3478261,4.73777778 10.1259565,4.98311111 9.83752609,5.02924444 L9.73913043,5.03703704 L4.26086957,5.03703704 C3.92608696,5.03703704 3.65217391,4.77037037 3.65217391,4.44444444 C3.65217391,4.15111111 3.87404348,3.90577778 4.16247391,3.85964444 L4.26086957,3.85185185 L9.73913043,3.85185185 Z" id="形状结合"></path>
                    </g>
                    <g id="编组" transform="translate(8.500000, 10.330467)" fill="#1a73e8" fill-rule="nonzero">
                        <path d="M9.96868476,3.82222223 C10.0104384,3.95555556 10.0104384,4.04444445 9.96868476,4.17777778 C9.96868476,4.17777778 9.9269311,4.31111111 9.88517744,4.35555556 C9.84342379,4.4888889 9.75991648,4.62222223 9.67640918,4.8 C9.46764092,5.15555555 9.17536534,5.6 8.7578288,6.0888889 C7.96450938,7.02222223 6.71189978,8 5,8 C3.28810021,8 2.03549061,7.02222222 1.24217119,6.0888889 C0.824634651,5.60000001 0.532359083,5.15555556 0.32359082,4.8 L0.114822546,4.35555556 C0.0730688894,4.31111111 0.0313152425,4.17777778 0.0313152425,4.17777778 C-0.0104384142,4.0888889 -0.0104384142,3.95555556 0.0313152425,3.82222223 C0.0313152425,3.82222223 0.0730688992,3.6888889 0.114822546,3.64444445 C0.156576203,3.51111111 0.240083506,3.37777778 0.32359082,3.2 C0.532359083,2.84444445 0.824634661,2.4 1.24217119,1.91111111 C2.03549061,0.977777781 3.28810021,0 5,0 C6.71189978,0 7.96450938,0.977777781 8.7578288,1.91111111 C9.17536534,2.4 9.46764091,2.84444445 9.67640918,3.2 L9.88517744,3.64444445 C9.9269311,3.6888889 9.96868475,3.82222223 9.96868476,3.82222223 Z M6.41962421,4 C6.41962421,4.88888889 5.75156576,5.6 5,5.6 C4.24843423,5.6 3.58037579,4.88888889 3.58037579,4 C3.58037579,3.11111111 4.24843424,2.4 5,2.4 C5.75156576,2.4 6.41962421,3.11111111 6.41962421,4 Z M5,6.4888889 C6.2526096,6.4888889 7.25469728,5.33333334 7.25469728,4 C7.25469728,2.66666666 6.2526096,1.51111111 5,1.51111111 C3.74739039,1.51111111 2.74530271,2.66666667 2.74530271,4 C2.74530271,5.33333333 3.74739039,6.4888889 5,6.4888889 Z" id="形状"></path>
                    </g>
                </g>
            </g>
        </g>
    </g>
</svg>