<?xml version="1.0" encoding="UTF-8"?>
<svg width="20px" height="20px" viewBox="0 0 20 20" version="1.1" xmlns="http://www.w3.org/2000/svg" xmlns:xlink="http://www.w3.org/1999/xlink">
    <title>切片</title>
    <g id="AI翻译web端" stroke="none" stroke-width="1" fill="none" fill-rule="evenodd">
        <g id="编辑器更新" transform="translate(-860.000000, -383.000000)">
            <g id="icon_20_删除线" transform="translate(860.000000, 383.000000)">
                <rect id="矩形备份-2" x="0" y="0" width="20" height="20"></rect>
                <g id="编组" transform="translate(2.000000, 2.000000)" fill="#333333" fill-rule="nonzero">
                    <path d="M3.36654093,5.38899164 C3.29771387,5.01361849 3.26471724,4.6325551 3.267996,4.25093981 C3.267996,3.81616459 3.36654093,3.31487987 3.5673262,2.84684988 C3.76687967,2.34310182 4.06744168,1.87507186 4.49980753,1.47355142 C4.90014628,1.07203098 5.46677959,0.703765276 6.10116252,0.435263869 C6.85377083,0.138030695 7.65711392,-0.00964884397 8.46624067,0.000488667866 C9.30017707,0.000488667866 10.1008546,0.101484604 10.8682732,0.335499593 C11.4669336,0.536259822 12.0335669,0.871270747 12.5336823,1.33930071 C12.6326592,1.43858155 12.6854134,1.57484342 12.6790899,1.71488154 C12.6727663,1.85491965 12.6079456,1.98587361 12.5004234,2.07583209 L11.601201,2.91335941 C11.4004157,3.07963322 11.0998537,3.11288798 10.9003003,2.91335941 C10.6629619,2.67572337 10.3934404,2.472571 10.0996228,2.30984708 C9.59249664,2.05936162 9.03303776,1.93312967 8.46747248,1.94158138 C7.90083918,1.94158138 7.4007237,2.00932256 7.03364385,2.17559637 C6.66656402,2.34310184 6.3339749,2.51060729 6.09993072,2.7791087 C5.86588653,3.04637845 5.70082378,3.28039344 5.59981524,3.54889484 C5.51294989,3.78479613 5.46792917,4.03404643 5.46677959,4.28542623 C5.46677959,4.65369191 5.5332974,4.95421642 5.63307415,5.22148616 C5.68061224,5.32370653 5.67268924,5.44311593 5.61206227,5.53816117 C5.5514353,5.63320641 5.44648914,5.6907478 5.33374393,5.6907478 L3.69913003,5.6907478 C3.53283547,5.6907478 3.39856802,5.52324233 3.36654093,5.38899164 Z M12.6334591,10.3772058 L10.9668181,10.3772058 C10.7327739,10.3772058 10.5677111,10.6112208 10.6674879,10.811981 C10.7660328,11.0127413 10.8005235,11.280011 10.8005235,11.5485124 C10.8005235,11.9500328 10.7007468,12.3182985 10.5332204,12.6533095 C10.3434836,12.9661138 10.0945219,13.2388915 9.80029255,13.4563504 C9.49433771,13.6653271 9.15655498,13.823383 8.80006159,13.9243803 C8.45386469,14.0289566 8.0949039,14.0853222 7.7333128,14.0918858 C7.11093781,14.0943041 6.49594727,13.9570954 5.93363616,13.6903653 C5.50220409,13.4922414 5.11637923,13.2071021 4.80036954,12.852838 C4.62089128,12.650219 4.31514935,12.6211556 4.10070059,12.7863285 L3.16698746,13.5906011 C3.06688559,13.6777332 3.00672489,13.8019696 3.00044525,13.9345233 C2.99416561,14.067077 3.04231206,14.1964431 3.13372855,14.292646 C3.60058512,14.8284172 4.20047733,15.2299376 4.90014628,15.498439 C5.79424642,15.8378302 6.74372519,16.0078213 7.7000539,15.9997238 C8.43421357,15.9997238 9.13388252,15.8999595 9.76703364,15.6659445 C10.3868048,15.461412 10.9632071,15.1435951 11.4669336,14.7286529 C11.9520992,14.3171342 12.3392699,13.8025138 12.6002002,13.2223354 C12.8675033,12.618823 13.0337978,11.9832876 13.0337978,11.2467562 C13.0337978,10.9794865 13.0337978,10.811981 13.0005389,10.577966 C12.9340211,10.5102249 12.8009854,10.3772058 12.6334591,10.3772058 L12.6334591,10.3772058 Z M15.9667411,7.33131601 C15.9002233,7.13055578 15.7006698,7.02955984 15.5011163,7.02955984 L0.500115483,7.02955984 C0.266071289,7.02955984 0.099776727,7.13055578 0.033258909,7.33131601 C0,7.39782552 0,7.43108028 0,7.49882148 L0,8.50262259 C0,8.76989234 0.234044194,9.03839375 0.500115483,9.03839375 L15.5011163,9.03839375 C15.7671876,9.03839375 16,8.76989234 16,8.50262259 L16,7.49882148 C16,7.4310803 16,7.39782554 15.9667411,7.33131601 Z" id="形状"></path>
                </g>
            </g>
        </g>
    </g>
</svg>