<?xml version="1.0" encoding="UTF-8"?>
<svg width="20px" height="20px" viewBox="0 0 20 20" version="1.1" xmlns="http://www.w3.org/2000/svg" xmlns:xlink="http://www.w3.org/1999/xlink">
    <title>切片</title>
    <g id="AI翻译web端" stroke="none" stroke-width="1" fill="none" fill-rule="evenodd">
        <g id="编辑器更新" transform="translate(-146.000000, -388.000000)">
            <g id="编组-10" transform="translate(88.000000, 268.000000)">
                <g id="icon_20_record" transform="translate(58.000000, 120.000000)">
                    <rect id="矩形" x="0" y="0" width="20" height="20"></rect>
                    <g id="编组" transform="translate(2.000000, 2.000000)" fill="#1a73e8" fill-rule="nonzero">
                        <path d="M11.5652174,0 C12.9043478,0 14,1.06666667 14,2.37037037 L14,2.37037037 L14.0003901,7.59990903 C13.6182121,7.40450301 13.2101612,7.25249407 12.7827367,7.15038155 L12.7826087,2.37037037 C12.7826087,1.71851852 12.2347826,1.18518519 11.5652174,1.18518519 L11.5652174,1.18518519 L2.43478261,1.18518519 C1.76521739,1.18518519 1.2173913,1.71851852 1.2173913,2.37037037 L1.2173913,2.37037037 L1.2173913,13.6296296 C1.2173913,14.2814815 1.76521739,14.8148148 2.43478261,14.8148148 L2.43478261,14.8148148 L6.50922797,14.8144554 C6.70808954,15.242547 6.96040997,15.6407694 7.25761415,16.0005473 L2.43478261,16 C1.09565217,16 0,14.9333333 0,13.6296296 L0,13.6296296 L0,2.37037037 C0,1.06666667 1.09565217,0 2.43478261,0 L2.43478261,0 Z M6.69565217,9.77777778 C6.70410628,9.77777778 6.71252157,9.77794783 6.72089461,9.77828459 C6.50825037,10.148729 6.33897436,10.545411 6.21776991,10.9625476 L4.26086957,10.962963 C3.92608696,10.962963 3.65217391,10.6962963 3.65217391,10.3703704 C3.65217391,10.0444444 3.92608696,9.77777778 4.26086957,9.77777778 L4.26086957,9.77777778 Z M9.73913043,6.81481481 C9.97387212,6.81481481 10.1786874,6.94592107 10.2801332,7.13663353 C9.57037971,7.29647614 8.91271329,7.59444647 8.3364999,8.00029647 L4.26086957,8 C3.92608696,8 3.65217391,7.73333333 3.65217391,7.40740741 C3.65217391,7.08148148 3.92608696,6.81481481 4.26086957,6.81481481 L4.26086957,6.81481481 Z M9.73913043,3.85185185 C10.073913,3.85185185 10.3478261,4.11851852 10.3478261,4.44444444 C10.3478261,4.77037037 10.073913,5.03703704 9.73913043,5.03703704 L9.73913043,5.03703704 L4.26086957,5.03703704 C3.92608696,5.03703704 3.65217391,4.77037037 3.65217391,4.44444444 C3.65217391,4.11851852 3.92608696,3.85185185 4.26086957,3.85185185 L4.26086957,3.85185185 Z" id="形状结合"></path>
                        <g transform="translate(7.000000, 8.000000)" id="形状">
                            <path d="M4.5,0 C6.985125,0 9,2.014875 9,4.5 C9,6.985125 6.985125,9 4.5,9 C2.014875,9 0,6.985125 0,4.5 C0,2.014875 2.014875,0 4.5,0 Z M4.5,0.749999997 C2.428875,0.749999997 0.749999997,2.428875 0.749999997,4.5 C0.749999997,6.571125 2.428875,8.25 4.5,8.25 C6.571125,8.25 8.25,6.571125 8.25,4.5 C8.25,2.428875 6.571125,0.749999997 4.5,0.749999997 Z M4.5,2.625 C5.16987299,2.625 5.78886116,2.98237297 6.12379765,3.56249999 C6.45873415,4.14262702 6.45873415,4.85737298 6.12379765,5.43750001 C5.78886116,6.01762703 5.16987299,6.375 4.5,6.375 C3.46446611,6.375 2.62500003,5.53553389 2.62500003,4.5 C2.62500003,3.46446611 3.46446611,2.625 4.5,2.625 Z"></path>
                        </g>
                    </g>
                </g>
            </g>
        </g>
    </g>
</svg>