<?xml version="1.0" encoding="UTF-8"?>
<svg width="20px" height="20px" viewBox="0 0 20 20" version="1.1" xmlns="http://www.w3.org/2000/svg" xmlns:xlink="http://www.w3.org/1999/xlink">
    <title>切片</title>
    <g id="AI翻译web端" stroke="none" stroke-width="1" fill="none" fill-rule="evenodd">
        <g id="编辑器更新" transform="translate(-767.000000, -383.000000)">
            <g id="6" transform="translate(767.000000, 383.000000)">
                <rect id="矩形备份-6" x="0.294117647" y="0.0588235294" width="19" height="19"></rect>
                <path d="M9.46153846,15.1540192 C12.3610334,15.1540192 14.7115385,12.8035142 14.7115385,9.90401923 L14.7115385,3.01009615 L12.8269231,3.01009615 L12.8269231,9.90401923 C12.8269231,11.7626698 11.3201891,13.2694038 9.46153846,13.2694038 C7.60288786,13.2694038 6.09615385,11.7626698 6.09615385,9.90401923 L6.09615385,3.01009615 L4.21153846,3.01009615 L4.21153846,9.90401923 C4.21153846,12.8035142 6.56204352,15.1540192 9.46153846,15.1540192 Z M15.3846154,16.4075577 L3.53846154,16.4075577 C3.24107744,16.4075577 3,16.6486351 3,16.9460192 C3,17.2434033 3.24107744,17.4844808 3.53846154,17.4844808 L15.3846154,17.4844808 C15.6819995,17.4844808 15.9230769,17.2434033 15.9230769,16.9460192 C15.9230769,16.6486351 15.6819995,16.4075577 15.3846154,16.4075577 Z" id="形状" fill="#1a73e8" fill-rule="nonzero"></path>
            </g>
        </g>
    </g>
</svg>